<?xml version="1.0" encoding="utf-8"?>
<!-- Uploaded to: SVG Repo, www.svgrepo.com, Generator: SVG Repo Mixer Tools -->
<svg fill="#000000" width="800px" height="800px" viewBox="0 0 32 32" version="1.1" xmlns="http://www.w3.org/2000/svg">
<title>csharp</title>
<path d="M20.288 14.275l-0.539 2.474h2.091l0.529-2.474zM20.11 10.095h1.045l-0.694 3.314h2.076l0.709-3.314h1.012l-0.694 3.314 2.164-0.005-0.187 0.871h-2.156l-0.515 2.474h2.314l-0.22 0.872h-2.269l-0.725 3.28h-1.037l0.709-3.28h-2.062l-0.694 3.28h-1.012l0.694-3.28h-2.174l0.164-0.872h2.184l0.501-2.469h-2.282l0.172-0.871h2.282zM12.783 9.902c0.894 0.006 1.746 0.179 2.527 0.491l-0.047-0.016v1.476c-0.787-0.445-1.729-0.708-2.731-0.708-0.028 0-0.056 0-0.085 0.001l0.004-0c-0.043-0.002-0.093-0.002-0.143-0.002-1.237 0-2.351 0.522-3.135 1.358l-0.002 0.002c-0.789 0.897-1.271 2.081-1.271 3.377 0 0.089 0.002 0.178 0.007 0.267l-0-0.012c-0.004 0.076-0.007 0.164-0.007 0.253 0 1.222 0.45 2.339 1.193 3.194l-0.005-0.006c0.736 0.789 1.782 1.282 2.943 1.282 0.056 0 0.111-0.001 0.167-0.003l-0.008 0c0.043 0.001 0.094 0.002 0.145 0.002 1.081 0 2.094-0.295 2.962-0.809l-0.027 0.015-0.005 1.35c-0.885 0.44-1.928 0.698-3.030 0.698-0.088 0-0.175-0.002-0.262-0.005l0.013 0c-0.069 0.003-0.149 0.005-0.23 0.005-1.495 0-2.844-0.623-3.802-1.624l-0.002-0.002c-0.944-1.054-1.521-2.454-1.521-3.988 0-0.096 0.002-0.191 0.007-0.285l-0 0.013c-0.004-0.081-0.006-0.175-0.006-0.271 0-1.669 0.652-3.186 1.714-4.31l-0.003 0.003c1.052-1.076 2.518-1.743 4.139-1.743 0.070 0 0.141 0.001 0.211 0.004l-0.010-0q0.075-0.003 0.15-0.005 0.076-0.001 0.152 0zM16 1.004c0 0 0 0-0 0-8.282 0-14.996 6.714-14.996 14.996s6.714 14.996 14.996 14.996c8.282 0 14.996-6.714 14.996-14.996 0-4.141-1.678-7.89-4.392-10.604v0c-2.714-2.714-6.463-4.392-10.604-4.392v0z"></path>
</svg>